<svg width="52" height="52" viewBox="0 0 52 52" fill="none" xmlns="http://www.w3.org/2000/svg">
<path d="M26 17L40.073 23.4007L43.5487 37.7829L33.8099 49.3165H18.1901L8.4513 37.7829L11.927 23.4007L26 17Z" fill="#573B30"/>
<ellipse cx="26" cy="23" rx="14" ry="13" fill="#6D4A3C"/>
<circle cx="16" cy="15" r="4" fill="#6D4A3C"/>
<circle cx="36" cy="15" r="4" fill="#6D4A3C"/>
<ellipse cx="19" cy="21.5" rx="2" ry="2.5" fill="#462F26"/>
<ellipse cx="33" cy="21.5" rx="2" ry="2.5" fill="#462F26"/>
<path d="M27.0191 30.6319C26.3605 30.8698 25.6395 30.8698 24.9809 30.6319L23.9867 30.2728C23.2855 30.0196 22.7449 29.4505 22.5278 28.7373V28.7373C22.266 27.8769 22.5149 26.9425 23.17 26.3264L23.4213 26.09C23.9629 25.5807 24.6784 25.2971 25.4219 25.2971H26.5781C27.3216 25.2971 28.0371 25.5807 28.5787 26.09L28.83 26.3264C29.4851 26.9425 29.734 27.8769 29.4722 28.7373V28.7373C29.2551 29.4505 28.7145 30.0196 28.0133 30.2728L27.0191 30.6319Z" fill="#462F26"/>
<path d="M26 33L32.9282 39H19.0718L26 33Z" fill="#573B30"/>
<path d="M26 52C22.1579 52 18.6432 51.3725 15.4559 50.1174C12.2687 48.819 9.51805 47.0229 7.20403 44.7291C4.93367 42.392 3.16541 39.6438 1.89924 36.4844C0.633082 33.2817 0 29.7761 0 25.9675C0 22.159 0.633082 18.675 1.89924 15.5156C3.16541 12.3562 4.93367 9.62963 7.20403 7.33583C9.51805 4.99875 12.2687 3.20266 15.4559 1.94756C18.6432 0.649188 22.1579 0 26 0C29.8422 0 33.335 0.649188 36.4786 1.94756C39.6658 3.20266 42.4165 4.99875 44.7305 7.33583C47.0445 9.62963 48.8346 12.3562 50.1008 15.5156C51.3669 18.675 52 22.159 52 25.9675C52 29.7761 51.3669 33.2817 50.1008 36.4844C48.8346 39.6438 47.0445 42.392 44.7305 44.7291C42.4165 47.0229 39.6658 48.819 36.4786 50.1174C33.335 51.3725 29.8422 52 26 52ZM26 45.8976C28.838 45.8976 31.4358 45.3999 33.7935 44.4045C36.1948 43.3658 38.2687 41.9592 40.0151 40.1848C41.7615 38.367 43.0932 36.2464 44.0101 33.8227C44.9706 31.3991 45.4509 28.7807 45.4509 25.9675C45.4509 23.1544 44.9706 20.536 44.0101 18.1124C43.0932 15.6887 41.7615 13.5897 40.0151 11.8152C38.2687 9.9975 36.1948 8.59093 33.7935 7.5955C31.4358 6.60008 28.838 6.10237 26 6.10237C23.162 6.10237 20.5424 6.60008 18.1411 7.5955C15.7834 8.59093 13.7313 9.9975 11.9849 11.8152C10.2821 13.5897 8.95046 15.6887 7.98992 18.1124C7.02939 20.536 6.54912 23.1544 6.54912 25.9675C6.54912 28.7807 7.02939 31.3991 7.98992 33.8227C8.95046 36.2464 10.2821 38.367 11.9849 40.1848C13.7313 41.9592 15.7834 43.3658 18.1411 44.4045C20.5424 45.3999 23.162 45.8976 26 45.8976Z" fill="#6495ED"/>
</svg>
